<?xml version="1.0" standalone="no"?>
<!DOCTYPE svg PUBLIC "-//W3C//DTD SVG 20010904//EN"
 "http://www.w3.org/TR/2001/REC-SVG-20010904/DTD/svg10.dtd">
<svg version="1.0" xmlns="http://www.w3.org/2000/svg"
 width="512.000000pt" height="512.000000pt" viewBox="0 0 512.000000 512.000000"
 preserveAspectRatio="xMidYMid meet">
<metadata>
Created by potrace 1.11, written by Peter Selinger 2001-2013
</metadata>
<g transform="translate(0.000000,512.000000) scale(0.100000,-0.100000)"
fill="#000000" stroke="none">
<path d="M1850 4527 c0 -7 5 -51 11 -97 11 -88 5 -170 -12 -170 -5 0 -12 6
-14 13 -28 82 -48 127 -54 127 -12 0 -65 -104 -91 -178 -13 -34 -28 -61 -34
-59 -6 2 -15 40 -21 84 l-10 81 -37 -30 c-54 -43 -133 -146 -167 -217 -16 -34
-40 -70 -53 -81 -29 -22 -45 -70 -54 -162 l-7 -68 -33 43 c-70 90 -163 137
-271 137 -156 0 -240 -96 -231 -263 4 -90 46 -185 112 -255 25 -27 46 -52 46
-55 0 -3 -44 -15 -97 -27 -93 -21 -419 -132 -436 -149 -4 -4 -4 -57 0 -117 l8
-109 60 -15 c69 -18 62 0 94 -236 25 -183 57 -302 112 -412 l42 -82 -11 -128
c-12 -140 -28 -458 -41 -830 -4 -133 -11 -245 -14 -248 -3 -3 -31 -1 -63 5
-164 31 -313 4 -386 -69 -45 -44 -50 -84 -17 -136 42 -68 219 -171 411 -239
l78 -28 0 -266 c0 -194 3 -270 12 -279 9 -9 436 -12 1859 -12 l1846 0 7 43 c3
23 9 163 13 310 l6 268 41 17 c86 34 217 104 266 143 127 101 120 190 -22 255
-58 26 -72 29 -179 29 l-116 0 -6 345 c-4 190 -12 434 -18 542 l-11 197 35 58
c99 165 133 275 172 553 24 172 16 157 85 172 69 14 66 7 75 145 4 69 2 93 -7
100 -33 20 -332 127 -408 144 -47 12 -95 27 -108 35 l-23 15 21 32 c40 60 89
169 100 223 23 108 -25 220 -112 266 -33 17 -60 22 -118 23 -41 0 -89 -3 -105
-8 -29 -7 -32 -5 -65 50 -57 96 -114 145 -249 213 -67 33 -156 74 -199 91 -82
33 -584 179 -614 179 -15 0 -18 -9 -18 -55 0 -30 -3 -55 -6 -55 -3 0 -20 11
-37 24 -42 32 -89 50 -177 70 -40 9 -88 23 -108 31 -19 8 -37 15 -40 15 -2 0
-2 -25 2 -55 5 -44 3 -55 -8 -55 -25 0 -197 60 -275 96 -41 19 -77 34 -82 34
-4 0 3 -27 17 -60 28 -69 28 -70 11 -70 -14 0 -159 96 -227 150 -42 33 -50 36
-50 17z m1085 -656 c265 -40 621 -149 762 -233 73 -44 186 -128 181 -134 -2
-1 -37 2 -78 8 -41 5 -122 8 -180 5 -170 -10 -296 -54 -429 -152 -35 -26 -116
-71 -178 -101 -63 -30 -141 -69 -172 -88 l-57 -35 -84 24 c-106 30 -162 31
-270 2 l-85 -23 -64 39 c-36 22 -117 65 -182 97 -64 31 -136 73 -159 93 -54
46 -186 110 -270 131 -101 26 -258 31 -371 12 -53 -8 -105 -18 -115 -22 -31
-9 101 110 172 157 139 90 651 211 1029 243 110 9 424 -4 550 -23z m-1840 -5
c54 -23 103 -64 145 -124 l39 -54 -57 -47 c-31 -25 -59 -46 -62 -46 -2 0 -12
32 -21 70 -13 57 -19 70 -35 70 -20 0 -21 -6 -10 -72 l6 -43 -65 32 c-48 24
-68 29 -76 21 -17 -17 -3 -31 70 -67 97 -49 98 -51 44 -116 -25 -30 -51 -59
-59 -63 -24 -14 -103 70 -140 148 -50 103 -46 204 9 264 12 13 31 27 42 31 33
14 133 11 170 -4z m3062 -33 c112 -53 115 -206 7 -369 l-36 -54 -46 24 c-52
27 -110 82 -98 93 4 5 47 10 94 13 79 5 87 7 87 25 0 18 -8 20 -77 23 l-77 3
24 52 c32 68 35 100 12 105 -10 2 -20 -4 -23 -15 -12 -35 -62 -138 -76 -157
-13 -17 -18 -15 -84 34 -38 29 -70 53 -72 55 -7 6 125 138 152 152 70 36 157
43 213 16z m-2592 -383 c75 -10 180 -38 172 -46 -2 -3 -83 2 -178 12 -96 9
-214 14 -264 12 -99 -5 -77 5 41 21 94 12 147 12 229 1z m2324 -28 l74 -17
-219 -1 c-120 0 -255 -5 -299 -12 -44 -6 -81 -9 -83 -7 -6 6 134 46 191 56 74
11 249 2 336 -19z m-2200 -167 c108 -21 242 -60 313 -92 52 -23 60 -31 87 -88
55 -115 75 -205 75 -350 0 -105 -4 -145 -22 -208 -62 -216 -194 -383 -382
-481 -81 -43 -156 -57 -303 -57 -176 0 -263 26 -449 132 -75 43 -95 60 -129
111 -94 138 -132 260 -143 463 -9 149 5 279 38 343 33 66 135 156 205 183 177
66 489 86 710 44z m2247 -10 c151 -26 243 -59 307 -113 129 -107 152 -176 144
-422 -3 -91 -13 -196 -21 -235 -20 -87 -79 -215 -101 -215 -8 0 -15 -9 -15
-21 0 -29 -18 -59 -33 -54 -13 6 -42 -33 -33 -43 9 -8 -114 -78 -208 -120
-178 -77 -423 -82 -575 -12 -287 134 -458 429 -438 753 7 117 29 205 75 298
35 71 39 75 93 96 79 32 220 70 314 87 110 19 379 20 491 1z m-1261 -309 l60
-23 2 -49 c11 -226 38 -394 77 -488 17 -40 17 -40 -19 -24 -18 8 -25 19 -25
40 0 99 -226 157 -377 96 l-61 -25 8 23 c17 44 40 233 40 327 l0 95 48 20 c26
11 56 22 67 25 49 12 124 5 180 -17z m212 -298 c-3 -8 -6 -5 -6 6 -1 11 2 17
5 13 3 -3 4 -12 1 -19z m-69 -392 c37 -34 68 -86 52 -86 -5 0 -10 -11 -10 -25
0 -16 6 -25 15 -25 18 0 18 -7 4 -48 -7 -20 -15 -29 -25 -25 -7 3 -17 -2 -20
-11 -8 -22 -84 -23 -84 -1 0 18 -30 20 -30 3 -1 -8 -6 -5 -15 6 -9 11 -18 15
-27 10 -19 -12 -50 -5 -64 14 -11 15 -14 15 -31 -1 -18 -15 -65 -26 -50 -10
11 10 -13 32 -29 26 -17 -6 -18 -30 -1 -36 6 -3 2 -6 -10 -6 -13 -1 -53 -13
-90 -27 -82 -31 -147 -29 -175 6 -16 20 -16 23 -2 37 13 14 13 18 -1 39 -19
29 -19 38 -1 31 24 -9 42 21 28 44 -15 24 -7 42 40 86 l33 32 28 -25 c15 -13
23 -24 18 -24 -6 0 -11 -7 -11 -15 0 -9 9 -15 25 -15 14 0 25 4 25 9 0 4 16 3
35 -3 29 -9 35 -16 35 -38 0 -16 5 -28 10 -28 6 0 10 12 10 26 0 26 2 26 43
21 28 -4 48 -1 61 8 14 11 23 12 32 4 14 -12 38 -3 29 11 -3 5 14 27 37 49 48
44 57 43 116 -13z m-2007 -187 c5 -1 15 -2 21 -3 7 0 19 -14 27 -30 12 -26 12
-31 -3 -41 -20 -15 -21 -55 -1 -55 9 0 15 9 15 25 0 16 6 25 16 25 14 0 14 3
4 15 -7 8 -8 15 -2 15 18 0 33 -25 20 -38 -6 -6 -8 -18 -5 -26 8 -20 37 -21
37 -1 0 17 16 20 25 5 3 -5 25 -18 49 -28 34 -15 43 -24 42 -43 -1 -18 5 -25
22 -27 16 -3 22 2 22 16 0 15 5 18 26 14 15 -3 29 -13 31 -23 3 -11 12 -19 19
-19 8 0 14 -4 14 -10 0 -5 7 -10 15 -10 19 0 20 26 1 37 -8 4 91 9 220 11 140
1 263 8 304 16 57 10 70 10 70 0 0 -18 57 -57 65 -44 3 6 -4 24 -16 42 l-23
31 27 -7 c20 -5 30 -2 39 14 7 11 20 20 30 20 9 0 18 3 20 8 2 4 22 20 46 35
38 25 44 26 58 12 18 -17 17 -17 38 -9 21 8 20 34 -1 50 -17 11 -16 13 10 23
15 6 27 16 28 23 0 7 6 -11 14 -40 20 -84 77 -132 158 -132 l44 0 7 -61 c8
-84 40 -138 96 -167 40 -21 55 -23 129 -19 61 4 91 10 110 24 40 29 70 99 77
181 l7 72 47 0 c34 0 58 7 84 25 20 14 46 25 58 25 18 0 20 4 14 45 -4 25 -5
45 -2 45 2 0 11 3 20 6 12 4 16 0 16 -15 0 -14 6 -21 19 -21 28 0 35 -17 11
-25 -30 -10 -21 -39 13 -43 19 -2 27 1 27 12 0 22 2 21 66 -24 32 -22 63 -40
71 -40 7 0 13 -7 13 -15 0 -10 10 -15 30 -15 22 0 28 -4 24 -15 -8 -21 27 -33
39 -13 9 13 17 13 66 1 33 -9 139 -17 262 -20 195 -5 206 -7 202 -24 -8 -29
28 -24 51 6 21 28 45 32 77 13 18 -11 23 -10 36 10 18 25 33 29 33 7 0 -8 5
-15 10 -15 6 0 10 8 10 18 0 17 55 52 81 52 6 0 19 10 30 23 l18 22 1 -22 c0
-14 6 -23 16 -23 11 0 15 8 14 28 -3 41 -1 45 15 32 19 -16 35 -5 35 24 0 26
29 59 31 35 0 -8 2 -29 3 -46 2 -18 0 -33 -5 -33 -12 0 -12 -37 0 -42 4 -1 10
-26 13 -55 4 -38 1 -53 -9 -57 -17 -7 -17 -33 1 -43 11 -6 15 -61 21 -255 l7
-247 -53 26 c-64 31 -256 103 -275 103 -8 0 -14 15 -16 38 -3 32 -7 37 -30 40
-25 3 -28 0 -28 -26 0 -25 -3 -29 -20 -25 -15 4 -19 11 -15 24 5 15 1 19 -15
19 -16 0 -20 -4 -16 -16 5 -12 2 -15 -10 -10 -8 3 -22 6 -30 6 -10 0 -13 7 -8
24 4 19 1 26 -15 31 -24 7 -64 -12 -55 -27 4 -6 -1 -8 -12 -5 -11 3 -46 11
-79 18 -33 6 -54 14 -47 16 25 9 11 23 -23 23 -19 0 -35 -4 -35 -10 0 -20 -19
-10 -22 12 -4 28 -28 36 -28 9 0 -28 -40 -29 -47 -1 -6 24 -23 27 -23 4 0 -13
-6 -15 -32 -10 -18 4 -50 9 -72 11 -21 3 -45 13 -52 22 -12 16 -15 16 -26 3
-10 -12 -26 -14 -73 -9 -33 4 -180 13 -327 20 -147 7 -266 16 -266 19 2 20 -4
30 -17 30 -8 0 -15 -9 -15 -20 0 -13 -7 -20 -20 -20 -14 0 -20 6 -18 18 2 11
-3 17 -17 17 -13 0 -19 -6 -17 -16 2 -15 -21 -17 -200 -24 -112 -3 -259 -11
-327 -15 -111 -8 -126 -7 -138 8 -12 16 -14 16 -28 -3 -12 -15 -31 -20 -85
-23 -47 -3 -70 -1 -70 7 0 6 -4 11 -10 11 -5 0 -10 -7 -10 -15 0 -9 -9 -15
-25 -15 -16 0 -25 6 -25 15 0 22 -21 18 -27 -5 -4 -15 -14 -20 -42 -20 -20 0
-46 -3 -58 -6 -18 -5 -22 -1 -25 23 -4 41 -32 37 -36 -6 l-3 -34 -55 6 c-42 4
-58 2 -71 -11 -12 -13 -34 -16 -90 -16 -55 1 -73 -3 -73 -13 0 -7 -6 -13 -14
-13 -7 0 -27 -3 -44 -6 -25 -5 -30 -3 -29 12 2 15 -5 19 -28 19 -37 0 -42 -28
-5 -34 16 -2 -18 -14 -90 -32 -63 -16 -119 -29 -124 -29 -13 0 0 384 13 388
14 5 14 39 0 48 -6 3 -8 17 -5 29 3 13 8 69 11 125 3 60 10 106 17 114 11 12
14 11 16 -5 2 -10 8 -20 13 -20z m1848 -95 c28 -6 31 -10 31 -44 0 -61 -19
-144 -38 -161 -9 -9 -29 -19 -43 -23 l-26 -6 -7 98 c-4 53 -10 107 -13 120 -5
20 -1 22 30 22 19 0 49 -3 66 -6z m-139 -21 c1 -10 5 -52 10 -93 14 -117 2
-137 -59 -105 -36 18 -51 55 -54 129 -2 59 -2 59 33 72 50 18 70 17 70 -3z
m2121 -944 c59 -15 104 -50 107 -85 6 -61 -116 -145 -339 -233 -191 -76 -200
-76 -281 -3 -46 41 -85 113 -97 177 l-8 45 81 25 c44 13 95 27 111 31 17 3 59
15 95 25 115 34 241 41 331 18z m-4066 -24 c76 -14 215 -51 309 -81 l58 -18
-5 -47 c-10 -85 -79 -184 -157 -224 -29 -15 -35 -14 -133 19 -130 45 -238 94
-321 146 -77 49 -106 82 -106 121 0 23 9 33 46 55 25 15 60 30 77 34 51 13
157 10 232 -5z"/>
<path d="M965 2862 c-145 -68 -164 -223 -40 -318 28 -21 51 -29 93 -32 74 -5
116 21 155 97 46 93 32 195 -35 244 -39 29 -122 33 -173 9z m43 -64 c26 -26 0
-88 -36 -88 -22 0 -52 30 -52 51 0 40 60 65 88 37z"/>
<path d="M3318 2856 c-90 -24 -148 -85 -155 -164 -8 -96 67 -167 178 -167 202
0 250 303 54 338 -16 2 -51 -1 -77 -7z m6 -45 c35 -39 4 -90 -47 -77 -38 9
-48 53 -17 78 28 23 43 23 64 -1z"/>
<path d="M4260 2295 c0 -8 5 -15 10 -15 6 0 10 7 10 15 0 8 -4 15 -10 15 -5 0
-10 -7 -10 -15z"/>
<path d="M2270 2205 c0 -9 9 -15 25 -15 16 0 25 6 25 15 0 9 -9 15 -25 15 -16
0 -25 -6 -25 -15z"/>
<path d="M2703 2208 c2 -7 12 -13 22 -13 10 0 20 6 23 13 2 7 -6 12 -23 12
-17 0 -25 -5 -22 -12z"/>
<path d="M2330 2185 c0 -23 -2 -24 -20 -15 -25 13 -40 5 -40 -21 0 -14 7 -19
25 -19 14 0 25 5 25 10 0 6 9 10 21 10 16 0 20 5 17 27 -4 36 -28 43 -28 8z"/>
<path d="M2792 2198 c7 -20 48 -23 48 -4 0 11 -9 16 -26 16 -16 0 -24 -5 -22
-12z"/>
<path d="M2760 2170 c0 -16 5 -30 10 -30 6 0 10 14 10 30 0 17 -4 30 -10 30
-5 0 -10 -13 -10 -30z"/>
<path d="M2370 2173 c1 -33 50 -75 50 -43 0 6 -4 10 -9 10 -4 0 -6 11 -3 25 3
20 0 25 -17 25 -13 0 -21 -6 -21 -17z"/>
<path d="M2430 2176 c0 -21 21 -31 30 -15 5 7 6 17 4 21 -9 14 -34 9 -34 -6z"/>
<path d="M2610 2155 c0 -14 5 -25 10 -25 6 0 10 11 10 25 0 14 -4 25 -10 25
-5 0 -10 -11 -10 -25z"/>
<path d="M2650 2159 c0 -24 23 -21 28 4 2 10 -3 17 -12 17 -10 0 -16 -9 -16
-21z"/>
<path d="M2700 2155 c0 -13 -10 -33 -22 -45 -16 -15 -19 -23 -11 -31 15 -15
34 -3 26 16 -3 8 0 15 7 15 17 0 39 30 40 53 0 10 -7 17 -20 17 -15 0 -20 -7
-20 -25z"/>
<path d="M2522 2146 c2 -15 8 -26 13 -26 15 0 12 43 -3 48 -10 3 -13 -4 -10
-22z"/>
<path d="M2800 2160 c-18 -11 -4 -42 17 -38 10 2 19 10 21 19 4 19 -19 31 -38
19z"/>
<path d="M2567 2154 c-16 -16 -7 -44 14 -44 15 0 20 5 17 22 -3 22 -19 33 -31
22z"/>
<path d="M2324 2105 c-4 -9 -2 -21 4 -27 15 -15 44 -1 40 19 -4 23 -36 29 -44
8z"/>
<path d="M2426 2113 c-12 -12 -6 -33 9 -33 8 0 15 6 15 14 0 17 -14 28 -24 19z"/>
<path d="M2272 2081 c3 -23 0 -31 -15 -35 -20 -5 -19 -27 0 -33 15 -5 47 62
39 82 -10 27 -28 17 -24 -14z"/>
<path d="M2467 2104 c-8 -8 1 -24 14 -24 5 0 9 7 9 15 0 15 -12 20 -23 9z"/>
<path d="M2744 2095 c-8 -19 12 -36 33 -28 19 7 12 37 -10 41 -9 2 -20 -4 -23
-13z"/>
<path d="M2620 2084 c0 -9 5 -14 12 -12 18 6 21 28 4 28 -9 0 -16 -7 -16 -16z"/>
<path d="M2820 2075 c0 -14 5 -25 10 -25 6 0 10 11 10 25 0 14 -4 25 -10 25
-5 0 -10 -11 -10 -25z"/>
<path d="M2365 2050 c-10 -17 12 -37 25 -24 8 8 6 15 -4 23 -10 9 -16 9 -21 1z"/>
<path d="M2412 2051 c4 -13 18 -16 19 -4 0 4 -5 9 -11 12 -7 2 -11 -2 -8 -8z"/>
<path d="M2322 2039 c2 -6 8 -10 13 -10 5 0 11 4 13 10 2 6 -4 11 -13 11 -9 0
-15 -5 -13 -11z"/>
<path d="M2765 2030 c-3 -5 1 -10 9 -10 9 0 16 5 16 10 0 6 -4 10 -9 10 -6 0
-13 -4 -16 -10z"/>
<path d="M794 2025 c-8 -21 3 -48 19 -43 19 7 22 58 2 58 -8 0 -18 -7 -21 -15z"/>
<path d="M2020 1960 c0 -5 14 -10 30 -10 17 0 30 5 30 10 0 6 -13 10 -30 10
-16 0 -30 -4 -30 -10z"/>
<path d="M2115 1960 c-3 -5 3 -10 14 -10 12 0 21 5 21 10 0 6 -6 10 -14 10 -8
0 -18 -4 -21 -10z"/>
<path d="M790 1935 c0 -14 -4 -25 -10 -25 -5 0 -10 -11 -10 -25 0 -40 27 -30
34 13 8 51 8 62 -4 62 -5 0 -10 -11 -10 -25z"/>
<path d="M1986 1953 c-11 -11 -6 -23 9 -23 8 0 15 4 15 9 0 13 -16 22 -24 14z"/>
<path d="M2960 1950 c0 -5 9 -10 20 -10 11 0 20 5 20 10 0 6 -9 10 -20 10 -11
0 -20 -4 -20 -10z"/>
<path d="M3030 1949 c0 -7 14 -10 35 -7 24 3 35 0 35 -9 0 -15 26 -17 35 -3 3
6 -6 15 -20 20 -35 13 -85 13 -85 -1z"/>
<path d="M4250 1938 c0 -7 3 -30 6 -50 7 -43 34 -53 34 -13 0 14 -4 25 -10 25
-5 0 -10 11 -10 25 0 14 -4 25 -10 25 -5 0 -10 -6 -10 -12z"/>
<path d="M1930 1910 c0 -11 5 -20 10 -20 6 0 10 9 10 20 0 11 -4 20 -10 20 -5
0 -10 -9 -10 -20z"/>
<path d="M2045 1920 c-8 -12 20 -24 35 -15 6 3 8 11 5 16 -8 12 -32 12 -40 -1z"/>
<path d="M867 1914 c-8 -9 11 -44 24 -44 6 0 9 10 7 22 -3 22 -19 34 -31 22z"/>
<path d="M3025 1910 c-8 -12 20 -24 35 -15 5 3 10 10 10 16 0 12 -37 12 -45
-1z"/>
<path d="M3160 1906 c0 -9 7 -16 16 -16 17 0 14 22 -4 28 -7 2 -12 -3 -12 -12z"/>
<path d="M1000 1885 c0 -14 5 -25 10 -25 6 0 10 11 10 25 0 14 -4 25 -10 25
-5 0 -10 -11 -10 -25z"/>
<path d="M4165 1889 c-9 -29 4 -38 21 -15 18 25 18 36 0 36 -8 0 -18 -9 -21
-21z"/>
<path d="M830 1870 c0 -21 4 -30 13 -27 6 2 12 14 12 27 0 13 -6 25 -12 28 -9
2 -13 -7 -13 -28z"/>
<path d="M940 1870 c0 -20 5 -30 15 -30 10 0 15 10 15 30 0 20 -5 30 -15 30
-10 0 -15 -10 -15 -30z"/>
<path d="M1995 1890 c-8 -13 20 -24 36 -15 8 6 7 10 -2 16 -18 11 -26 11 -34
-1z"/>
<path d="M1883 1878 c2 -7 10 -13 17 -13 7 0 15 6 18 13 2 7 -5 12 -18 12 -13
0 -20 -5 -17 -12z"/>
<path d="M1965 1880 c3 -5 8 -10 11 -10 2 0 4 5 4 10 0 6 -5 10 -11 10 -5 0
-7 -4 -4 -10z"/>
<path d="M3075 1880 c-4 -6 5 -10 19 -10 14 0 26 5 26 10 0 6 -9 10 -19 10
-11 0 -23 -4 -26 -10z"/>
<path d="M3130 1880 c0 -5 5 -10 10 -10 6 0 10 5 10 10 0 6 -4 10 -10 10 -5 0
-10 -4 -10 -10z"/>
<path d="M3194 1879 c-10 -17 13 -36 27 -22 12 12 4 33 -11 33 -5 0 -12 -5
-16 -11z"/>
<path d="M4092 1863 c4 -39 28 -42 28 -4 0 21 -5 31 -16 31 -11 0 -14 -8 -12
-27z"/>
<path d="M4210 1860 c0 -16 5 -30 10 -30 6 0 10 14 10 30 0 17 -4 30 -10 30
-5 0 -10 -13 -10 -30z"/>
<path d="M1730 1835 c0 -18 5 -25 20 -25 22 0 27 -16 8 -22 -18 -6 1 -28 24
-28 14 0 18 5 14 15 -4 11 1 15 19 15 14 0 25 5 25 10 0 13 -48 32 -61 24 -5
-3 -9 0 -9 5 0 6 5 11 11 11 5 0 7 5 4 10 -3 6 -17 10 -31 10 -19 0 -24 -5
-24 -25z"/>
<path d="M1920 1850 c0 -5 5 -10 10 -10 6 0 10 5 10 10 0 6 -4 10 -10 10 -5 0
-10 -4 -10 -10z"/>
<path d="M1950 1846 c0 -16 19 -25 38 -19 22 8 13 33 -13 33 -15 0 -25 -6 -25
-14z"/>
<path d="M3122 1847 c-14 -16 -6 -27 20 -27 13 0 18 6 16 17 -4 22 -22 27 -36
10z"/>
<path d="M3246 1853 c-11 -11 -6 -23 9 -23 8 0 15 4 15 9 0 13 -16 22 -24 14z"/>
<path d="M3337 1854 c-14 -14 -6 -24 19 -24 16 0 24 5 22 13 -5 14 -31 21 -41
11z"/>
<path d="M873 1823 c-7 -15 -13 -35 -13 -46 0 -10 5 -17 13 -14 6 2 12 15 12
28 0 15 7 26 18 29 25 7 26 24 2 28 -14 2 -24 -6 -32 -25z"/>
<path d="M3170 1840 c0 -5 5 -10 10 -10 6 0 10 5 10 10 0 6 -4 10 -10 10 -5 0
-10 -4 -10 -10z"/>
<path d="M1100 1815 c0 -22 4 -26 23 -23 14 2 22 10 22 23 0 13 -8 21 -22 23
-19 3 -23 -1 -23 -23z"/>
<path d="M4135 1830 c-8 -13 20 -24 41 -16 20 8 9 26 -16 26 -10 0 -22 -5 -25
-10z"/>
<path d="M785 1820 c-8 -12 20 -24 35 -15 6 3 8 11 5 16 -8 12 -32 12 -40 -1z"/>
<path d="M980 1812 c0 -24 8 -32 26 -25 22 8 17 43 -6 43 -13 0 -20 -7 -20
-18z"/>
<path d="M1034 1815 c-8 -21 3 -48 19 -43 19 7 22 58 2 58 -8 0 -18 -7 -21
-15z"/>
<path d="M1923 1823 c-23 -8 -14 -33 12 -33 15 0 25 6 25 14 0 16 -19 25 -37
19z"/>
<path d="M3920 1805 c0 -18 5 -25 20 -25 15 0 20 7 20 25 0 18 -5 25 -20 25
-15 0 -20 -7 -20 -25z"/>
<path d="M920 1810 c0 -5 5 -10 10 -10 6 0 10 5 10 10 0 6 -4 10 -10 10 -5 0
-10 -4 -10 -10z"/>
<path d="M1860 1805 c0 -10 7 -15 18 -13 21 4 19 22 -2 26 -10 2 -16 -3 -16
-13z"/>
<path d="M3155 1811 c-9 -16 3 -31 26 -31 14 0 19 6 17 17 -4 20 -33 29 -43
14z"/>
<path d="M3356 1811 c-4 -5 -4 -16 -1 -23 4 -10 0 -14 -12 -14 -10 1 -19 -3
-21 -9 -5 -16 24 -17 39 -2 8 7 22 16 32 20 26 10 21 37 -7 37 -14 0 -27 -4
-30 -9z"/>
<path d="M3992 1793 c2 -17 9 -28 18 -28 9 0 16 11 18 28 3 22 -1 27 -18 27
-17 0 -21 -5 -18 -27z"/>
<path d="M4047 1813 c-14 -13 -6 -33 13 -33 13 0 20 7 20 20 0 19 -20 27 -33
13z"/>
<path d="M4233 1808 c2 -7 12 -13 22 -13 10 0 20 6 23 13 2 7 -6 12 -23 12
-17 0 -25 -5 -22 -12z"/>
<path d="M1637 1794 c-28 -15 -29 -34 -1 -34 8 0 14 -8 14 -19 0 -10 7 -24 15
-31 23 -19 32 16 10 40 -11 12 -13 20 -7 20 13 0 16 26 4 33 -4 3 -20 -1 -35
-9z"/>
<path d="M3220 1795 c0 -8 7 -15 15 -15 8 0 15 7 15 15 0 8 -7 15 -15 15 -8 0
-15 -7 -15 -15z"/>
<path d="M3277 1804 c-4 -4 -7 -11 -7 -16 0 -13 50 -6 53 7 2 12 -36 19 -46 9z"/>
<path d="M4120 1800 c0 -5 5 -10 10 -10 6 0 10 5 10 10 0 6 -4 10 -10 10 -5 0
-10 -4 -10 -10z"/>
<path d="M4174 1796 c-7 -20 2 -46 16 -46 13 0 13 47 0 55 -6 3 -13 -1 -16 -9z"/>
<path d="M1200 1785 c0 -8 5 -15 10 -15 6 0 10 7 10 15 0 8 -4 15 -10 15 -5 0
-10 -7 -10 -15z"/>
<path d="M803 1771 c-3 -12 -12 -21 -19 -21 -8 0 -14 -10 -14 -25 0 -16 6 -25
15 -25 8 0 15 9 15 20 0 14 7 20 21 20 15 0 20 5 17 22 -4 29 -28 35 -35 9z"/>
<path d="M933 1783 c-7 -2 -13 -16 -13 -29 0 -19 5 -24 26 -24 22 0 25 4 22
27 -3 27 -14 35 -35 26z"/>
<path d="M1242 1773 c2 -10 10 -18 18 -18 8 0 16 8 18 18 2 12 -3 17 -18 17
-15 0 -20 -5 -18 -17z"/>
<path d="M1385 1780 c-10 -16 14 -40 40 -40 26 0 50 24 40 40 -3 5 -21 10 -40
10 -19 0 -37 -5 -40 -10z"/>
<path d="M1690 1786 c0 -17 25 -56 37 -56 17 0 29 28 17 40 -11 10 -54 23 -54
16z"/>
<path d="M3840 1775 c0 -8 5 -15 10 -15 6 0 10 7 10 15 0 8 -4 15 -10 15 -5 0
-10 -7 -10 -15z"/>
<path d="M1560 1765 c0 -9 5 -15 11 -13 6 2 11 8 11 13 0 5 -5 11 -11 13 -6 2
-11 -4 -11 -13z"/>
<path d="M3403 1768 c2 -7 12 -13 22 -13 10 0 20 6 23 13 2 7 -6 12 -23 12
-17 0 -25 -5 -22 -12z"/>
<path d="M3595 1770 c-11 -19 6 -30 46 -30 32 0 39 3 39 20 0 17 -7 20 -39 20
-22 0 -43 -4 -46 -10z"/>
<path d="M3782 1763 c2 -10 10 -18 18 -18 8 0 16 8 18 18 2 12 -3 17 -18 17
-15 0 -20 -5 -18 -17z"/>
<path d="M4094 1766 c-9 -24 3 -46 26 -46 17 0 21 5 18 27 -3 31 -34 44 -44
19z"/>
<path d="M4227 1773 c-15 -14 -7 -43 12 -43 10 0 21 -9 24 -20 7 -28 27 -25
27 5 0 15 -6 25 -14 25 -7 0 -16 9 -19 20 -5 20 -18 26 -30 13z"/>
<path d="M1124 1756 c-10 -26 1 -51 21 -51 15 0 21 8 23 33 3 27 0 32 -18 32
-11 0 -23 -6 -26 -14z"/>
<path d="M3475 1761 c-7 -12 12 -24 25 -16 11 7 4 25 -10 25 -5 0 -11 -4 -15
-9z"/>
<path d="M3892 1728 c2 -25 8 -33 23 -33 15 0 21 8 23 33 3 29 1 32 -23 32
-24 0 -26 -3 -23 -32z"/>
<path d="M1010 1719 c0 -38 24 -35 28 4 2 19 -1 27 -12 27 -11 0 -16 -10 -16
-31z"/>
<path d="M1070 1718 c0 -26 6 -36 27 -45 35 -17 43 -16 43 2 0 8 -9 15 -20 15
-16 0 -20 7 -20 30 0 20 -5 30 -15 30 -10 0 -15 -10 -15 -32z"/>
<path d="M870 1720 c0 -15 5 -20 18 -18 9 2 17 10 17 18 0 8 -8 16 -17 18 -13
2 -18 -3 -18 -18z"/>
<path d="M1321 1726 c-10 -12 -8 -17 9 -26 28 -15 57 5 39 26 -15 18 -33 18
-48 0z"/>
<path d="M3380 1730 c0 -5 5 -10 11 -10 5 0 7 5 4 10 -3 6 -8 10 -11 10 -2 0
-4 -4 -4 -10z"/>
<path d="M3967 1734 c-4 -4 -7 -18 -7 -31 0 -16 -6 -23 -20 -23 -11 0 -20 -4
-20 -9 0 -19 18 -20 49 -5 26 13 31 21 29 42 -3 26 -18 38 -31 26z"/>
<path d="M4022 1713 c4 -39 28 -42 28 -4 0 21 -5 31 -16 31 -11 0 -14 -8 -12
-27z"/>
<path d="M1222 1698 c4 -43 33 -46 33 -3 0 21 -5 31 -18 33 -15 3 -18 -2 -15
-30z"/>
<path d="M1504 1715 c-4 -9 -2 -21 4 -27 16 -16 47 -5 47 17 0 26 -42 34 -51
10z"/>
<path d="M1590 1720 c0 -5 4 -10 9 -10 6 0 13 5 16 10 3 6 -1 10 -9 10 -9 0
-16 -4 -16 -10z"/>
<path d="M3691 1717 c-13 -17 -5 -27 24 -27 12 0 25 3 28 7 9 8 -12 33 -28 33
-7 0 -18 -6 -24 -13z"/>
<path d="M4155 1720 c-10 -16 6 -32 26 -27 12 3 19 0 19 -9 0 -8 9 -14 20 -14
13 0 20 7 20 20 0 13 -7 20 -19 20 -11 0 -23 5 -26 10 -3 6 -12 10 -20 10 -8
0 -17 -4 -20 -10z"/>
<path d="M820 1700 c0 -13 7 -20 20 -20 13 0 20 7 20 20 0 13 -7 20 -20 20
-13 0 -20 -7 -20 -20z"/>
<path d="M1280 1700 c0 -11 5 -20 10 -20 6 0 10 9 10 20 0 11 -4 20 -10 20 -5
0 -10 -9 -10 -20z"/>
<path d="M1424 1690 c1 -35 20 -45 24 -12 2 12 10 22 17 22 8 0 17 5 20 10 4
6 -8 10 -28 10 -31 0 -34 -2 -33 -30z"/>
<path d="M3445 1710 c3 -5 10 -10 16 -10 5 0 9 5 9 10 0 6 -7 10 -16 10 -8 0
-12 -4 -9 -10z"/>
<path d="M3504 1705 c-8 -19 3 -35 25 -35 26 0 44 23 29 38 -17 17 -47 15 -54
-3z"/>
<path d="M3807 1714 c-11 -11 -8 -52 3 -59 17 -10 40 15 36 39 -3 21 -26 33
-39 20z"/>
<path d="M1710 1700 c0 -5 5 -10 10 -10 6 0 10 5 10 10 0 6 -4 10 -10 10 -5 0
-10 -4 -10 -10z"/>
<path d="M3580 1700 c0 -5 7 -10 15 -10 8 0 15 -9 15 -20 0 -11 7 -20 15 -20
11 0 15 9 13 30 -2 26 -6 30 -30 30 -15 0 -28 -4 -28 -10z"/>
<path d="M3760 1690 c0 -11 5 -20 10 -20 6 0 10 9 10 20 0 11 -4 20 -10 20 -5
0 -10 -9 -10 -20z"/>
<path d="M944 1686 c-10 -26 4 -48 28 -44 17 2 23 10 23 28 0 18 -6 26 -23 28
-13 2 -25 -3 -28 -12z"/>
<path d="M890 1664 c0 -31 23 -28 28 4 2 15 -2 22 -12 22 -11 0 -16 -9 -16
-26z"/>
<path d="M1615 1680 c-3 -5 3 -10 14 -10 12 0 21 5 21 10 0 6 -6 10 -14 10 -8
0 -18 -4 -21 -10z"/>
<path d="M4064 1675 c-10 -25 4 -47 28 -43 17 2 24 11 26 31 3 23 0 27 -23 27
-14 0 -28 -7 -31 -15z"/>
<path d="M784 1665 c-7 -18 3 -35 22 -35 8 0 14 10 14 25 0 27 -27 35 -36 10z"/>
<path d="M3410 1670 c0 -5 9 -10 20 -10 11 0 20 5 20 10 0 6 -9 10 -20 10 -11
0 -20 -4 -20 -10z"/>
<path d="M4144 1665 c-8 -19 5 -38 22 -31 8 3 14 -1 14 -10 0 -21 34 -14 38 9
2 12 -3 17 -17 17 -12 0 -21 6 -21 15 0 19 -29 20 -36 0z"/>
<path d="M1033 1654 c-3 -8 -1 -20 5 -26 16 -16 42 -2 42 22 0 24 -38 28 -47
4z"/>
<path d="M1511 1653 c-5 -10 -12 -17 -15 -15 -15 6 -26 1 -26 -13 0 -8 8 -15
18 -15 19 0 65 44 55 54 -11 10 -22 7 -32 -11z"/>
<path d="M4242 1648 c2 -13 10 -23 18 -23 8 0 16 10 18 23 3 17 -2 22 -18 22
-16 0 -21 -5 -18 -22z"/>
<path d="M842 1643 c5 -26 38 -29 38 -4 0 15 -6 21 -21 21 -14 0 -19 -5 -17
-17z"/>
<path d="M1145 1651 c-3 -2 -5 -13 -5 -23 0 -13 -8 -18 -30 -18 -16 0 -30 -4
-30 -10 0 -5 13 -10 29 -10 16 0 36 -3 45 -6 12 -5 16 0 16 21 0 19 4 26 13
22 16 -6 44 9 35 18 -8 8 -67 13 -73 6z"/>
<path d="M1264 1646 c-8 -22 3 -49 19 -43 6 2 12 14 12 27 0 27 -22 39 -31 16z"/>
<path d="M1326 1651 c-12 -20 6 -42 33 -39 37 4 37 42 -1 46 -14 2 -29 -1 -32
-7z"/>
<path d="M1581 1647 c-14 -18 -4 -27 30 -27 32 0 48 18 28 31 -20 13 -45 11
-58 -4z"/>
<path d="M3516 1652 c-8 -13 43 -55 60 -48 20 8 12 31 -10 30 -9 -1 -16 4 -16
12 0 15 -25 19 -34 6z"/>
<path d="M3984 1645 c-4 -9 -2 -21 4 -27 15 -15 44 -1 40 19 -4 23 -36 29 -44
8z"/>
<path d="M3421 1641 c-20 -13 -4 -31 29 -31 16 0 32 5 36 11 7 12 -13 29 -36
29 -8 0 -21 -4 -29 -9z"/>
<path d="M3674 1635 c-9 -22 9 -37 37 -33 16 2 24 10 24 23 0 26 -52 35 -61
10z"/>
<path d="M3764 1636 c-8 -22 3 -49 19 -43 6 2 12 14 12 27 0 27 -22 39 -31 16z"/>
<path d="M3852 1643 c-17 -7 -5 -23 18 -23 12 0 20 -8 22 -22 2 -18 9 -22 29
-20 23 3 25 0 21 -28 -4 -25 -1 -30 17 -30 25 0 39 26 23 42 -6 6 -8 17 -5 24
4 10 -4 14 -25 14 -24 0 -31 5 -34 22 -3 22 -35 32 -66 21z"/>
<path d="M950 1620 c0 -5 7 -10 16 -10 8 0 12 5 9 10 -3 6 -10 10 -16 10 -5 0
-9 -4 -9 -10z"/>
<path d="M1690 1604 c0 -12 -7 -15 -25 -12 -14 3 -28 1 -31 -3 -8 -13 23 -22
44 -14 9 4 25 9 34 10 23 2 32 11 23 24 -10 17 -45 13 -45 -5z"/>
<path d="M4085 1610 c-3 -5 3 -10 15 -10 12 0 18 5 15 10 -3 6 -10 10 -15 10
-5 0 -12 -4 -15 -10z"/>
<path d="M827 1604 c-4 -4 -7 -16 -7 -26 0 -14 6 -19 23 -16 14 2 22 10 22 23
0 20 -25 32 -38 19z"/>
<path d="M900 1589 c0 -11 -7 -27 -15 -36 -22 -21 -15 -47 14 -51 21 -3 23 -1
19 27 -2 17 -1 31 4 31 4 0 8 11 8 25 0 16 -6 25 -15 25 -9 0 -15 -9 -15 -21z"/>
<path d="M1000 1585 c0 -20 4 -26 18 -23 9 2 17 12 17 23 0 11 -8 21 -17 23
-14 3 -18 -3 -18 -23z"/>
<path d="M1210 1575 c0 -24 5 -35 15 -35 10 0 15 11 15 35 0 24 -5 35 -15 35
-10 0 -15 -11 -15 -35z"/>
<path d="M1535 1600 c-8 -12 20 -24 35 -15 5 3 10 10 10 16 0 12 -37 12 -45
-1z"/>
<path d="M3325 1600 c-9 -15 -1 -22 27 -25 13 -2 28 -4 33 -5 24 -5 46 1 39
11 -3 6 -17 8 -30 5 -16 -4 -23 -2 -22 6 4 16 -38 23 -47 8z"/>
<path d="M1332 1589 c2 -6 8 -10 13 -10 5 0 11 4 13 10 2 6 -4 11 -13 11 -9 0
-15 -5 -13 -11z"/>
<path d="M1425 1590 c-4 -7 -3 -16 3 -22 14 -14 57 -6 57 12 0 18 -50 26 -60
10z"/>
<path d="M3482 1588 c5 -15 37 -18 41 -3 1 6 -9 12 -22 13 -16 3 -22 -1 -19
-10z"/>
<path d="M3820 1565 c0 -24 5 -35 15 -35 10 0 15 11 15 35 0 24 -5 35 -15 35
-10 0 -15 -11 -15 -35z"/>
<path d="M4024 1585 c-4 -9 -2 -21 4 -27 15 -15 44 -1 40 19 -4 23 -36 29 -44
8z"/>
<path d="M4130 1575 c0 -14 4 -25 8 -25 4 0 8 -12 7 -27 0 -21 5 -28 20 -28
25 0 34 42 11 51 -9 3 -16 17 -16 30 0 15 -6 24 -15 24 -9 0 -15 -9 -15 -25z"/>
<path d="M4194 1585 c-8 -20 4 -35 27 -35 14 0 19 7 19 25 0 18 -5 25 -20 25
-11 0 -23 -7 -26 -15z"/>
<path d="M3582 1573 c2 -12 12 -18 28 -18 36 0 33 29 -3 33 -23 3 -28 0 -25
-15z"/>
<path d="M3700 1580 c0 -5 7 -10 15 -10 8 0 15 5 15 10 0 6 -7 10 -15 10 -8 0
-15 -4 -15 -10z"/>
<path d="M1080 1555 c0 -18 5 -25 20 -25 15 0 20 7 20 25 0 18 -5 25 -20 25
-15 0 -20 -7 -20 -25z"/>
<path d="M1300 1550 c0 -21 4 -30 13 -27 6 2 12 14 12 27 0 13 -6 25 -12 28
-9 2 -13 -7 -13 -28z"/>
<path d="M954 1559 c-10 -17 13 -36 27 -22 12 12 4 33 -11 33 -5 0 -12 -5 -16
-11z"/>
<path d="M3735 1549 c-7 -23 7 -45 23 -35 11 6 4 56 -8 56 -5 0 -12 -9 -15
-21z"/>
<path d="M3660 1525 c0 -40 25 -49 32 -12 6 30 -1 47 -18 47 -9 0 -14 -11 -14
-35z"/>
<path d="M4080 1540 c0 -13 5 -20 13 -17 6 2 12 10 12 17 0 7 -6 15 -12 18 -8
2 -13 -5 -13 -18z"/>
<path d="M992 1518 c-15 -15 3 -38 30 -38 23 0 36 29 17 41 -19 12 -33 11 -47
-3z"/>
<path d="M1150 1504 c0 -33 33 -30 38 4 3 17 -2 22 -17 22 -16 0 -21 -6 -21
-26z"/>
<path d="M3883 1523 c-15 -5 -17 -39 -4 -47 11 -7 41 3 41 13 0 15 -26 38 -37
34z"/>
<path d="M4017 1513 c-25 -24 22 -55 49 -32 11 9 12 15 3 25 -12 15 -41 19
-52 7z"/>
<path d="M4065 1459 c-4 -6 -1 -15 6 -20 20 -13 54 -6 54 11 0 18 -50 26 -60
9z"/>
<path d="M4036 1423 c-11 -11 -6 -23 9 -23 8 0 15 4 15 9 0 13 -16 22 -24 14z"/>
<path d="M4185 837 c-37 -12 -38 -13 -31 -25 7 -11 76 6 76 19 0 14 -15 16
-45 6z"/>
<path d="M4283 800 c-18 -11 -33 -24 -33 -30 0 -14 5 -13 47 10 21 11 43 20
50 20 7 0 13 5 13 10 0 17 -43 11 -77 -10z"/>
<path d="M4141 744 c-34 -24 -11 -39 27 -17 18 10 32 21 32 26 0 13 -35 8 -59
-9z"/>
<path d="M740 812 c0 -12 68 -37 78 -28 10 10 -12 25 -46 32 -20 4 -32 2 -32
-4z"/>
<path d="M610 790 c0 -6 12 -15 28 -20 15 -6 35 -15 44 -20 23 -13 38 -13 38
0 0 11 -75 49 -97 50 -7 0 -13 -5 -13 -10z"/>
<path d="M775 730 c-6 -9 55 -43 63 -35 8 8 -17 32 -38 38 -11 3 -22 1 -25 -3z"/>
</g>
</svg>
